<svg xmlns="http://www.w3.org/2000/svg" width="16" height="16" viewBox="0 0 16 16">
  <path id="Path_3536" data-name="Path 3536" d="M8,0a8,8,0,1,0,8,8A8,8,0,0,0,8,0Zm3.449,11.447A4.875,4.875,0,0,1,3.127,8.015a.77.77,0,0,1,.755-.776A.762.762,0,0,1,4.65,8h0a3.35,3.35,0,1,0,.98-2.37h0a.408.408,0,0,1-.208.688l-1.347.269a.408.408,0,0,1-.48-.48l.269-1.347a.408.408,0,0,1,.688-.208h0a4.875,4.875,0,1,1,6.894,6.894ZM9.539,8.228a.571.571,0,0,1,.209.78h0a.571.571,0,0,1-.78.209L7.716,8.495h0A.571.571,0,0,1,7.43,8V5.983A.571.571,0,0,1,8,5.412H8a.571.571,0,0,1,.571.571V7.67Z" fill="#fff"/>
</svg>
