<svg xmlns="http://www.w3.org/2000/svg" width="27.712" height="20.279" viewBox="0 0 27.712 20.279">
  <g id="Group_6844" data-name="Group 6844" transform="translate(-212.93 -395.011)">
    <path id="Path_67" data-name="Path 67" d="M196.629,365.184H175.768a1.858,1.858,0,0,0-1.855,1.856v10.1h0v2.3a1.857,1.857,0,0,0,1.855,1.855h20.859a1.858,1.858,0,0,0,1.855-1.855V367.036A1.858,1.858,0,0,0,196.629,365.184Zm.23,14.264a.231.231,0,0,1-.231.231H175.768a.233.233,0,0,1-.232-.231v-6.7h21.322Zm0-8.323H175.535v-1.293h21.322Zm0-2.917H175.535V367.04a.234.234,0,0,1,.232-.232h20.858a.232.232,0,0,1,.232.232h0Z" transform="translate(42.16 33.99)" fill="#179bd7"/>
    <path id="Path_68" data-name="Path 68" d="M171.856,374.5a.234.234,0,0,1-.232-.232V361.855a.233.233,0,0,1,.232-.231h20.858a.233.233,0,0,1,.232.231v2.308h1.624v-2.308A1.858,1.858,0,0,0,192.714,360H171.856A1.858,1.858,0,0,0,170,361.855v12.408a1.858,1.858,0,0,0,1.856,1.856h1.285V374.5Z" transform="translate(42.93 35.011)" fill="#222d65"/>
  </g>
</svg>
