<svg xmlns="http://www.w3.org/2000/svg" width="32.033" height="33.333" viewBox="0 0 32.033 33.333">
  <g id="Group_5423" data-name="Group 5423" transform="translate(-55.984 -200.772)">
    <g id="Group_4780" data-name="Group 4780" transform="translate(-46.017 -227.562)">
      <path id="Path_2780" data-name="Path 2780" d="M1182.951,124.522a16.384,16.384,0,0,1-1.829-.418,8.057,8.057,0,0,1-5.35-5.631c-.027-.093-.054-.185-.088-.3-.376.039-.749.084-1.122.117a13.556,13.556,0,0,1-14.389-10.556,13.277,13.277,0,0,1,2.251-10.934c.044-.062.086-.125.136-.183a.48.48,0,0,1,.665-.122.488.488,0,0,1,.128.689c-.18.282-.379.552-.592.86l1.68.974a10.855,10.855,0,0,1,3.223-3.219l-.983-1.7c-.5.378-.976.741-1.453,1.109-.137.106-.257.233-.392.342a.5.5,0,0,1-.725-.017.475.475,0,0,1,.083-.716,29.254,29.254,0,0,1,2.6-1.883,12.525,12.525,0,0,1,5.484-1.686,1.951,1.951,0,0,0,.252-.053h1.758c.673.106,1.354.174,2.017.322a13.562,13.562,0,0,1,10.53,11.211,13.363,13.363,0,0,1-.328,5.641c-.02.073-.037.146-.059.234.419.206.836.4,1.246.618.111.058.267.148.283.244a.887.887,0,0,1-.056.565c-.132.217-.375.21-.611.1a13.912,13.912,0,0,0-1.485-.648,7.2,7.2,0,1,0-3.2,13.985,7.306,7.306,0,0,0,7.456-3.858,6.671,6.671,0,0,0,.757-2.69,7.084,7.084,0,0,0-1.8-5.367,1.7,1.7,0,0,1-.166-.2.464.464,0,0,1,.072-.646.449.449,0,0,1,.648,0,5.035,5.035,0,0,1,.5.559,8.2,8.2,0,0,1-5.046,13.135c-.223.037-.444.081-.667.122Zm.182-19.742c-.083-.655-.13-1.316-.254-1.963a9.667,9.667,0,1,0-7.361,11.385.391.391,0,0,0,.339-.282,8.064,8.064,0,0,1,6.333-5.625.419.419,0,0,0,.35-.318A11.52,11.52,0,0,0,1183.134,104.78Zm-20.366-.524a10.959,10.959,0,0,1,1.18-4.388l-1.676-.964a12.314,12.314,0,0,0-1.435,5.352Zm5.753-8.953a10.927,10.927,0,0,1,4.383-1.185V92.187a12.506,12.506,0,0,0-5.351,1.438Zm10.754-1.674a12.426,12.426,0,0,0-5.354-1.437V94.12a10.9,10.9,0,0,1,4.39,1.181Zm-17,17,1.671-.967a10.893,10.893,0,0,1-1.181-4.374h-1.931A12.458,12.458,0,0,0,1162.278,110.625Zm21.783-6.374h1.933a12.407,12.407,0,0,0-1.443-5.342l-1.669.964A10.927,10.927,0,0,1,1184.061,104.25Zm-11.155,11.16a10.946,10.946,0,0,1-4.386-1.181l-.965,1.672a12.405,12.405,0,0,0,5.351,1.438Zm6.29-19.669c.607.517,1.217.974,1.749,1.508s.988,1.143,1.493,1.738l1.62-.935a12.658,12.658,0,0,0-3.929-3.927Zm-14.8,14.8-1.621.937a12.62,12.62,0,0,0,3.931,3.924l.931-1.617c-.607-.517-1.216-.973-1.749-1.507S1164.9,111.138,1164.391,110.544Zm19.736-5.275-.528,2.854,1.865.189a8.892,8.892,0,0,0,.486-3.042Zm-8.617,9.961-1.579.2v1.931l1.579-.17Z" transform="translate(-1057.827 337.145)" fill="#185697"/>
      <text id="_" data-name="₹" transform="translate(112.429 446.455)" fill="#185697" font-size="12" font-family="MyriadPro-Regular, Myriad Pro"><tspan x="0" y="0">₹</tspan></text>
    </g>
    <path id="Icon_ionic-ios-add-circle" data-name="Icon ionic-ios-add-circle" d="M11.48,3.375a8.1,8.1,0,1,0,8.1,8.1A8.1,8.1,0,0,0,11.48,3.375ZM15.006,12.1H12.1v2.9a.623.623,0,0,1-1.247,0V12.1h-2.9a.623.623,0,1,1,0-1.247h2.9v-2.9a.623.623,0,1,1,1.247,0v2.9h2.9a.623.623,0,1,1,0,1.247Z" transform="translate(68.07 214.521)" fill="#185697"/>
  </g>
</svg>
