<svg xmlns="http://www.w3.org/2000/svg" width="30.068" height="34.935" viewBox="0 0 30.068 34.935">
  <path id="Path_3534" data-name="Path 3534" d="M11.364,29.826a4.474,4.474,0,0,0,4.474-4.474h6.89L21.639,23.19a12.8,12.8,0,0,1-1.327-5.652V14.913a8.947,8.947,0,0,0-5.143-8.1,4.37,4.37,0,0,0,.67-2.342,4.474,4.474,0,1,0-8.948,0,4.37,4.37,0,0,0,.671,2.341,8.948,8.948,0,0,0-5.145,8.1v2.625A12.8,12.8,0,0,1,1.089,23.19L0,25.352H6.89A4.474,4.474,0,0,0,11.364,29.826Zm0-26.843A1.491,1.491,0,1,1,9.872,4.474,1.491,1.491,0,0,1,11.364,2.983Zm1.491,22.37a1.491,1.491,0,1,1-2.983,0Z" transform="translate(8.221) rotate(16)" fill="#fff"/>
</svg>
