<svg xmlns="http://www.w3.org/2000/svg" width="38.061" height="30.449" viewBox="0 0 38.061 30.449">
  <path id="Path_3535" data-name="Path 3535" d="M35.6,2.463A8.474,8.474,0,0,0,29.652,0a8.377,8.377,0,0,0-5.945,2.463L21.129,5.041a10.278,10.278,0,0,1,2.492,1.785c.187.187.351.388.52.585L26.4,5.154a4.486,4.486,0,0,1,3.253-1.348,4.6,4.6,0,0,1,3.254,7.855l-7.927,7.927a4.783,4.783,0,0,1-3.248,1.345,4.6,4.6,0,0,1-3.309-7.857l.264-.208a2.744,2.744,0,0,0-.446-.66,2.688,2.688,0,0,0-3.789-.02A8.39,8.39,0,0,0,27.675,22.277L35.6,14.35a8.384,8.384,0,0,0,2.46-6.143A8.282,8.282,0,0,0,35.6,2.463ZM13.916,23.039l-2.254,2.254a4.789,4.789,0,0,1-3.253,1.35,4.6,4.6,0,0,1-3.254-7.855l7.927-7.927a4.6,4.6,0,0,1,6.5,0,4.6,4.6,0,0,1,0,6.507l-.209.209a2.653,2.653,0,0,0,4.235.68A8.383,8.383,0,0,0,22.279,8.173a8.475,8.475,0,0,0-5.948-2.464,8.371,8.371,0,0,0-5.941,2.462L2.463,16.1A8.407,8.407,0,0,0,14.354,27.986l2.579-2.579a10.278,10.278,0,0,1-2.492-1.785C14.249,23.437,14.088,23.235,13.916,23.039Z" fill="#185697"/>
</svg>
