<svg xmlns="http://www.w3.org/2000/svg" width="15.834" height="15.834" viewBox="0 0 15.834 15.834">
  <g id="Group_5424" data-name="Group 5424" transform="translate(-2 -2)">
    <path id="Path_3537" data-name="Path 3537" d="M3.583,19.084h9.5V17.5h-9.5V8H2v9.5A1.585,1.585,0,0,0,3.583,19.084Z" transform="translate(0 -1.25)" fill="#fff"/>
    <path id="Path_3538" data-name="Path 3538" d="M17.084,2h-9.5A1.585,1.585,0,0,0,6,3.583v9.5a1.585,1.585,0,0,0,1.583,1.583h9.5a1.585,1.585,0,0,0,1.583-1.583v-9.5A1.585,1.585,0,0,0,17.084,2ZM15.5,9.125H13.125V11.5H11.542V9.125H9.167V7.542h2.375V5.167h1.583V7.542H15.5Z" transform="translate(-0.833)" fill="#fff"/>
  </g>
</svg>
