<svg id="Group_5426" data-name="Group 5426" xmlns="http://www.w3.org/2000/svg" width="19.174" height="22.803" viewBox="0 0 19.174 22.803">
  <path id="Path_3540" data-name="Path 3540" d="M7.34,24.8h8.878a3.115,3.115,0,0,0,3.112-3.112V15.437h3.258a.814.814,0,0,0,.814-.814V8.515a.814.814,0,0,0-.814-.814H19.33V5.112A3.115,3.115,0,0,0,16.218,2H7.34A3.115,3.115,0,0,0,4.228,5.112V21.69A3.115,3.115,0,0,0,7.34,24.8ZM21.773,13.809h-2.85a.811.811,0,0,0-.576.239l-.406.406,0,0-1.052,1.052v-.884a.814.814,0,0,0-.814-.814H12V9.329h9.773v4.479Zm-9.18-10.18a.814.814,0,1,1-1.629,0ZM5.857,5.112A1.485,1.485,0,0,1,7.34,3.629h2a2.443,2.443,0,1,0,4.886,0h2A1.485,1.485,0,0,1,17.7,5.112V7.7H11.186a.814.814,0,0,0-.814.814v6.108a.814.814,0,0,0,.814.814h4.072v2.036a.814.814,0,0,0,.5.752.825.825,0,0,0,.312.062.815.815,0,0,0,.576-.239L17.7,17v4.695a1.485,1.485,0,0,1-1.483,1.483H7.34a1.485,1.485,0,0,1-1.483-1.483V5.112Z" transform="translate(-4.228 -2)" fill="#222d65"/>
  <circle id="Ellipse_193" data-name="Ellipse 193" cx="0.814" cy="0.814" r="0.814" transform="translate(6.737 18.324)" fill="#179bd7"/>
</svg>
