<svg xmlns="http://www.w3.org/2000/svg" width="31.072" height="31.221" viewBox="0 0 31.072 31.221">
  <g id="Whatsapp_link" data-name="Whatsapp link" transform="translate(-4.112 -3.489)">
    <path id="Path_3503" data-name="Path 3503" d="M30.657,8.026A15.475,15.475,0,0,0,6.307,26.693L4.112,34.71l8.2-2.151a15.458,15.458,0,0,0,7.393,1.883h.006A15.478,15.478,0,0,0,30.657,8.026Zm-10.944,23.8h-.005a12.84,12.84,0,0,1-6.545-1.792l-.469-.279L7.826,31.035l1.3-4.745L8.82,25.8a12.859,12.859,0,1,1,10.893,6.026Z" fill="#fff" fill-rule="evenodd"/>
    <path id="Path_3504" data-name="Path 3504" d="M31.351,27.13c-.387-.193-2.287-1.129-2.641-1.258s-.612-.193-.87.193-1,1.258-1.224,1.516-.451.29-.838.1a10.557,10.557,0,0,1-3.109-1.919,11.652,11.652,0,0,1-2.151-2.678c-.225-.387-.024-.6.17-.789.174-.173.387-.451.58-.677a2.64,2.64,0,0,0,.387-.645.712.712,0,0,0-.032-.677c-.1-.193-.87-2.1-1.192-2.87-.314-.754-.633-.652-.87-.664s-.483-.014-.741-.014a1.42,1.42,0,0,0-1.031.484,4.336,4.336,0,0,0-1.353,3.225,7.519,7.519,0,0,0,1.578,4c.193.258,2.726,4.163,6.6,5.837a22.2,22.2,0,0,0,2.2.814,5.3,5.3,0,0,0,2.435.153,3.981,3.981,0,0,0,2.609-1.838,3.231,3.231,0,0,0,.225-1.838C31.995,27.42,31.737,27.324,31.351,27.13Z" transform="translate(-4.585 -4.932)" fill="#fff" fill-rule="evenodd"/>
  </g>
</svg>
